<?xml version="1.0" encoding="utf-8" ?><svg xmlns="http://www.w3.org/2000/svg" xmlns:xlink="http://www.w3.org/1999/xlink" width="650" height="654" viewBox="0 0 650 654"><path fill="white" transform="scale(1.13636 1.13739)" d="M0 0L572 0L572 575L0 575L0 0Z"/><path fill="#1A71B6" transform="scale(1.13636 1.13739)" d="M261.053 296.328C288.313 295.164 315.255 302.557 338.103 317.469C340.303 318.89 352.154 326.16 351.337 328.469C347.131 340.344 343.831 349.534 344.881 362.64C346.503 382.877 356.581 402.107 371.256 416.076C376.172 420.756 381.628 423.847 386.933 427.91C389.457 429.844 386.366 436.147 385.391 438.694C372.419 472.593 337.9 497.6 303.608 506.784C292.983 509.56 282.071 511.089 271.093 511.34C235.513 513.171 204.864 503.635 176.885 481.157C155.632 464.084 140.815 439.11 138.069 411.711C136.094 391.724 140.562 371.63 150.819 354.362C152.668 351.187 154.783 347.585 157.103 344.759C161.277 344.622 166.431 345.058 170.81 345.037C184.223 345.042 197.422 341.674 209.192 335.243C223.638 327.343 237.206 313.344 241.928 297.306C248.3 296.923 254.675 296.597 261.053 296.328Z"/><path fill="#1A71B6" transform="scale(1.13636 1.13739)" d="M362.375 86.0396C367.733 85.8908 373.095 85.9179 378.451 86.1209C387.238 86.4642 391.274 87.4858 399.619 89.303C424.419 94.7037 447.508 107.594 464.919 126.12C483.459 145.848 492.618 168.546 491.616 195.645C490.68 220.969 478.745 243.489 459.958 260.103C455.929 263.665 448.817 270.356 443.962 272.628C441.441 273.807 432.583 273.36 429.211 273.726C425.774 274.099 422.718 274.315 419.164 275.448C409.675 278.475 400.557 281.959 391.578 286.274C387.148 288.403 380.817 293.552 377.374 294.631C374.71 295.465 364.125 294.859 361.047 294.721C355.3 294.273 348.66 293.836 343.085 292.633C310.506 285.599 278.108 266.484 260.014 237.943C250.327 222.664 245.448 203.248 246.7 185.094C247.023 180.41 248.869 173.049 249.96 168.229C254.152 169.208 258.079 171.272 262.26 172.394C270.148 174.512 286.361 174.245 294.176 172.303C308.016 168.865 321.946 160.509 329.358 148.114C336.979 135.371 339.666 116.93 331.75 103.659C330.443 101.467 326.192 96.5723 325.928 94.3674C325.842 93.6478 325.994 93.1399 326.471 92.5961C328.528 90.2547 346.514 87.1739 350.186 86.7612C354.239 86.3057 358.301 86.173 362.375 86.0396Z"/><path fill="#1A71B6" transform="scale(1.13636 1.13739)" d="M431.699 285.932L432.135 285.893C455.853 283.911 481.297 290.859 499.908 306.083C513.903 317.531 523.981 334.214 525.758 352.335C527.61 370.621 522.08 389.008 509.737 402.828C494.904 419.437 472.139 429.641 450.2 431.471C422.86 432.845 399.81 427.222 378.612 409.033C365.986 397.925 356.729 381.675 355.29 364.88C353.619 345.39 359.379 328.97 372.151 314.208C386.689 297.405 409.612 287.328 431.699 285.932Z"/><path fill="#1A71B6" transform="scale(1.13636 1.13739)" d="M164.264 225.846C164.372 225.83 164.48 225.815 164.589 225.799C196.727 223.793 234.017 243.77 235.76 279.044C236.441 292.823 231.994 305.682 223.113 315.396C211.131 328.266 194.625 335.989 177.066 336.941C172.336 337.04 167.387 337.12 162.721 336.717C119.405 332.978 85.5528 287.537 116.797 249.167C128.662 234.597 146.121 227.658 164.264 225.846Z"/><path fill="#1A71B6" transform="scale(1.13636 1.13739)" d="M272.3 83.7785C295.187 82.4049 321.132 93.9347 325.479 118.571C328.049 133.134 322.65 143.845 311.766 153.298C302.701 161.172 295.748 162.419 284.282 164.318C238.294 169.688 206.606 115.008 253.08 89.2109C258.902 85.979 265.689 84.5304 272.3 83.7785Z"/><path fill="#1A71B6" transform="scale(1.13636 1.13739)" d="M143.749 97.5409C149.246 97.0688 156.674 97.4593 161.878 99.3628C176.32 104.646 188.981 114.755 190.729 131.005C191.571 139.495 189.047 147.976 183.701 154.625C176.078 164.006 163.381 169.745 151.423 170.956C104.605 174.93 82.9561 119.753 129.56 100.231C134.074 98.3398 138.901 97.9435 143.749 97.5409Z"/></svg>